<?xml version="1.0" encoding="UTF-8"?>
<!-- Generator: Adobe Illustrator 17.1.0, SVG Export Plug-In . SVG Version: 6.00 Build 0)  -->
<!DOCTYPE svg PUBLIC "-//W3C//DTD SVG 1.1//EN" "http://www.w3.org/Graphics/SVG/1.1/DTD/svg11.dtd">
<svg version="1.1" id="Rounded_Rectangle_3_copy_1_" xmlns="http://www.w3.org/2000/svg" xmlns:xlink="http://www.w3.org/1999/xlink" x="0px" y="0px" viewBox="0 0 20 23" enable-background="new 0 0 20 23" xml:space="preserve">
<g id="Rounded_Rectangle_3_copy">
	<g>
		<path fill-rule="evenodd" clip-rule="evenodd" fill="#623881" d="M19,3H1C0.4,3,0,3.4,0,4v18c0,0.6,0.4,1,1,1h18c0.6,0,1-0.4,1-1    V4C20,3.4,19.6,3,19,3z M18,21H2V8h2v10.5C4,18.8,4.2,19,4.5,19h11c0.3,0,0.5-0.2,0.5-0.5V8h2V21z M5,18V8h10v10H5z M18,7H2V5h16    V7z M12,10H8c-0.6,0-1,0.4-1,1s0.4,1,1,1h4c0.6,0,1-0.4,1-1S12.6,10,12,10z M4,2h2c0.6,0,1-0.4,1-1S6.6,0,6,0H4C3.4,0,3,0.4,3,1    S3.4,2,4,2z M13,2h2c0.6,0,1-0.4,1-1s-0.4-1-1-1h-2c-0.6,0-1,0.4-1,1S12.4,2,13,2z"/>
	</g>
</g>
</svg>