<?xml version="1.0" encoding="UTF-8"?>
<!-- Generator: Adobe Illustrator 17.1.0, SVG Export Plug-In . SVG Version: 6.00 Build 0)  -->
<!DOCTYPE svg PUBLIC "-//W3C//DTD SVG 1.1//EN" "http://www.w3.org/Graphics/SVG/1.1/DTD/svg11.dtd">
<svg version="1.1" id="Rounded_Rectangle_4_1_" xmlns="http://www.w3.org/2000/svg" xmlns:xlink="http://www.w3.org/1999/xlink" x="0px" y="0px" viewBox="0 0 24 12" enable-background="new 0 0 24 12" xml:space="preserve">
<g id="Rounded_Rectangle_4">
	<g>
		<path fill-rule="evenodd" clip-rule="evenodd" fill="#623881" d="M24,1c0-0.6-0.4-1-1-1H1C0.4,0,0,0.4,0,1c0,0.3,0.1,0.5,0.3,0.7    C0.1,2.1,0,2.5,0,3v6c0,1.7,1.3,3,3,3h18c1.7,0,3-1.3,3-3V3c0-0.5-0.1-0.9-0.3-1.3C23.9,1.5,24,1.3,24,1z M22,9c0,0.6-0.4,1-1,1H3    c-0.6,0-1-0.4-1-1V2h2v1c0,0.6,0.4,1,1,1h14c0.6,0,1-0.4,1-1V2h2V9z M19.5,8h-15C4.2,8,4,8.2,4,8.5C4,8.8,4.2,9,4.5,9h15    C19.8,9,20,8.8,20,8.5C20,8.2,19.8,8,19.5,8z"/>
	</g>
</g>
</svg>