<?xml version="1.0" encoding="UTF-8"?>
<!-- Generator: Adobe Illustrator 17.1.0, SVG Export Plug-In . SVG Version: 6.00 Build 0)  -->
<!DOCTYPE svg PUBLIC "-//W3C//DTD SVG 1.1//EN" "http://www.w3.org/Graphics/SVG/1.1/DTD/svg11.dtd">
<svg version="1.1" id="Forma_1_1_" xmlns="http://www.w3.org/2000/svg" xmlns:xlink="http://www.w3.org/1999/xlink" x="0px" y="0px" viewBox="0 0 25 23" enable-background="new 0 0 25 23" xml:space="preserve">
<g id="Forma_1">
	<g>
		<path fill-rule="evenodd" clip-rule="evenodd" fill="#E94228" d="M24.7,10.9l-2.4-2.5L22.8,5c0.1-0.5-0.2-0.9-0.7-1l-3.4-0.6    l-1.6-3C17,0,16.5-0.1,16,0.1L13,1.6L9.9,0.1C9.5-0.1,9,0,8.8,0.5l-1.6,3L3.8,4.1C3.3,4.2,3,4.6,3.1,5l0.5,3.4l-2.4,2.5    c-0.3,0.3-0.3,0.9,0,1.2l2.4,2.5L3.1,18c-0.1,0.5,0.2,0.9,0.7,1l3.4,0.6l1.6,3C9,23,9.5,23.1,9.9,22.9l3.1-1.5l3.1,1.5    c0.1,0.1,0.3,0.1,0.4,0.1c0.3,0,0.6-0.2,0.8-0.5l1.6-3l3.4-0.6c0.5-0.1,0.8-0.5,0.7-1l-0.5-3.4l2.4-2.5    C25.1,11.8,25.1,11.2,24.7,10.9z M20.8,13.7c-0.2,0.2-0.3,0.5-0.2,0.7l0.4,3l-3,0.5c-0.3,0-0.5,0.2-0.6,0.4L16,21l-2.7-1.3    c-0.1-0.1-0.2-0.1-0.4-0.1c-0.1,0-0.3,0-0.4,0.1L9.9,21l-1.4-2.7c-0.1-0.2-0.3-0.4-0.6-0.4l-3-0.5l0.4-3c0-0.3,0-0.5-0.2-0.7    L3,11.5l2.1-2.2c0.2-0.2,0.3-0.5,0.2-0.7l-0.4-3l3-0.5c0.3,0,0.5-0.2,0.6-0.4L9.9,2l2.7,1.3c0.2,0.1,0.5,0.1,0.8,0L16,2l1.4,2.7    c0.1,0.2,0.3,0.4,0.6,0.4l3,0.5l-0.4,3c0,0.3,0,0.5,0.2,0.7l2.1,2.2L20.8,13.7z M10.2,10.8c1.1,0,2.1-0.9,2.1-2.1    c0-1.2-0.9-2.1-2.1-2.1c-1.1,0-2.1,0.9-2.1,2.1C8.2,9.9,9.1,10.8,10.2,10.8z M10.2,8c0.4,0,0.7,0.3,0.7,0.7c0,0.4-0.3,0.7-0.7,0.7    c-0.4,0-0.7-0.3-0.7-0.7C9.5,8.4,9.8,8,10.2,8z M17.1,7.3c-0.3-0.3-0.7-0.3-1,0l-7.3,7.4c-0.3,0.3-0.3,0.7,0,1    c0.1,0.1,0.3,0.2,0.5,0.2c0.2,0,0.4-0.1,0.5-0.2l7.3-7.4C17.4,8,17.4,7.6,17.1,7.3z M15.7,12.2c-1.1,0-2.1,0.9-2.1,2.1    c0,1.2,0.9,2.1,2.1,2.1c1.1,0,2.1-0.9,2.1-2.1C17.8,13.1,16.8,12.2,15.7,12.2z M15.7,15c-0.4,0-0.7-0.3-0.7-0.7    c0-0.4,0.3-0.7,0.7-0.7c0.4,0,0.7,0.3,0.7,0.7C16.4,14.6,16.1,15,15.7,15z"/>
	</g>
</g>
</svg>